<mxfile host="app.diagrams.net" modified="2023-11-11T01:14:07.127Z" agent="Mozilla/5.0 (Windows NT 10.0; Win64; x64) AppleWebKit/537.36 (KHTML, like Gecko) Chrome/119.0.0.0 Safari/537.36" etag="XbkyzD1_sYTc-hzWm5M-" version="22.1.0" type="github">
  <diagram name="PÃ¡gina-1" id="5k_kdog-Dgk3Jh1cfOds">
    <mxGraphModel dx="1061" dy="550" grid="1" gridSize="10" guides="1" tooltips="1" connect="1" arrows="1" fold="1" page="1" pageScale="1" pageWidth="827" pageHeight="1169" math="0" shadow="0">
      <root>
        <mxCell id="0" />
        <mxCell id="1" parent="0" />
        <mxCell id="LbvLRjbKe0_DXnUtJtes-1" value="Tecnico" style="swimlane;fontStyle=0;childLayout=stackLayout;horizontal=1;startSize=30;horizontalStack=0;resizeParent=1;resizeParentMax=0;resizeLast=0;collapsible=1;marginBottom=0;whiteSpace=wrap;html=1;shadow=0;swimlaneLine=1;labelBackgroundColor=none;labelBorderColor=none;" vertex="1" parent="1">
          <mxGeometry x="550" y="60" width="140" height="60" as="geometry" />
        </mxCell>
        <mxCell id="LbvLRjbKe0_DXnUtJtes-2" value="idTecnico: int" style="text;align=left;verticalAlign=middle;spacingLeft=4;spacingRight=4;overflow=hidden;points=[[0,0.5],[1,0.5]];portConstraint=eastwest;rotatable=0;whiteSpace=wrap;html=1;shadow=0;swimlaneLine=1;labelBackgroundColor=none;labelBorderColor=none;" vertex="1" parent="LbvLRjbKe0_DXnUtJtes-1">
          <mxGeometry y="30" width="140" height="30" as="geometry" />
        </mxCell>
        <mxCell id="LbvLRjbKe0_DXnUtJtes-5" value="Cliente" style="swimlane;fontStyle=0;childLayout=stackLayout;horizontal=1;startSize=30;horizontalStack=0;resizeParent=1;resizeParentMax=0;resizeLast=0;collapsible=1;marginBottom=0;whiteSpace=wrap;html=1;shadow=0;swimlaneLine=1;labelBackgroundColor=none;labelBorderColor=none;" vertex="1" parent="1">
          <mxGeometry x="70" y="60" width="140" height="90" as="geometry" />
        </mxCell>
        <mxCell id="LbvLRjbKe0_DXnUtJtes-6" value="IdCliente: int" style="text;align=left;verticalAlign=middle;spacingLeft=4;spacingRight=4;overflow=hidden;points=[[0,0.5],[1,0.5]];portConstraint=eastwest;rotatable=0;whiteSpace=wrap;html=1;shadow=0;swimlaneLine=1;labelBackgroundColor=none;labelBorderColor=none;" vertex="1" parent="LbvLRjbKe0_DXnUtJtes-5">
          <mxGeometry y="30" width="140" height="30" as="geometry" />
        </mxCell>
        <mxCell id="LbvLRjbKe0_DXnUtJtes-7" value="regInformacao()" style="text;align=left;verticalAlign=middle;spacingLeft=4;spacingRight=4;overflow=hidden;points=[[0,0.5],[1,0.5]];portConstraint=eastwest;rotatable=0;whiteSpace=wrap;html=1;shadow=0;swimlaneLine=1;labelBackgroundColor=none;labelBorderColor=none;strokeColor=default;" vertex="1" parent="LbvLRjbKe0_DXnUtJtes-5">
          <mxGeometry y="60" width="140" height="30" as="geometry" />
        </mxCell>
        <mxCell id="LbvLRjbKe0_DXnUtJtes-9" value="Material" style="swimlane;fontStyle=0;childLayout=stackLayout;horizontal=1;startSize=30;horizontalStack=0;resizeParent=1;resizeParentMax=0;resizeLast=0;collapsible=1;marginBottom=0;whiteSpace=wrap;html=1;shadow=0;swimlaneLine=1;labelBackgroundColor=none;labelBorderColor=none;" vertex="1" parent="1">
          <mxGeometry x="550" y="330" width="140" height="120" as="geometry" />
        </mxCell>
        <mxCell id="LbvLRjbKe0_DXnUtJtes-10" value="Item 1" style="text;align=left;verticalAlign=middle;spacingLeft=4;spacingRight=4;overflow=hidden;points=[[0,0.5],[1,0.5]];portConstraint=eastwest;rotatable=0;whiteSpace=wrap;html=1;shadow=0;swimlaneLine=1;labelBackgroundColor=none;labelBorderColor=none;" vertex="1" parent="LbvLRjbKe0_DXnUtJtes-9">
          <mxGeometry y="30" width="140" height="30" as="geometry" />
        </mxCell>
        <mxCell id="LbvLRjbKe0_DXnUtJtes-11" value="Item 2" style="text;align=left;verticalAlign=middle;spacingLeft=4;spacingRight=4;overflow=hidden;points=[[0,0.5],[1,0.5]];portConstraint=eastwest;rotatable=0;whiteSpace=wrap;html=1;shadow=0;swimlaneLine=1;labelBackgroundColor=none;labelBorderColor=none;" vertex="1" parent="LbvLRjbKe0_DXnUtJtes-9">
          <mxGeometry y="60" width="140" height="30" as="geometry" />
        </mxCell>
        <mxCell id="LbvLRjbKe0_DXnUtJtes-12" value="Item 3" style="text;align=left;verticalAlign=middle;spacingLeft=4;spacingRight=4;overflow=hidden;points=[[0,0.5],[1,0.5]];portConstraint=eastwest;rotatable=0;whiteSpace=wrap;html=1;shadow=0;swimlaneLine=1;labelBackgroundColor=none;labelBorderColor=none;" vertex="1" parent="LbvLRjbKe0_DXnUtJtes-9">
          <mxGeometry y="90" width="140" height="30" as="geometry" />
        </mxCell>
        <mxCell id="LbvLRjbKe0_DXnUtJtes-13" value="Servico" style="swimlane;fontStyle=0;childLayout=stackLayout;horizontal=1;startSize=30;horizontalStack=0;resizeParent=1;resizeParentMax=0;resizeLast=0;collapsible=1;marginBottom=0;whiteSpace=wrap;html=1;shadow=0;swimlaneLine=1;labelBackgroundColor=none;labelBorderColor=none;" vertex="1" parent="1">
          <mxGeometry x="70" y="330" width="140" height="120" as="geometry" />
        </mxCell>
        <mxCell id="LbvLRjbKe0_DXnUtJtes-14" value="Item 1" style="text;align=left;verticalAlign=middle;spacingLeft=4;spacingRight=4;overflow=hidden;points=[[0,0.5],[1,0.5]];portConstraint=eastwest;rotatable=0;whiteSpace=wrap;html=1;shadow=0;swimlaneLine=1;labelBackgroundColor=none;labelBorderColor=none;" vertex="1" parent="LbvLRjbKe0_DXnUtJtes-13">
          <mxGeometry y="30" width="140" height="30" as="geometry" />
        </mxCell>
        <mxCell id="LbvLRjbKe0_DXnUtJtes-15" value="Item 2" style="text;align=left;verticalAlign=middle;spacingLeft=4;spacingRight=4;overflow=hidden;points=[[0,0.5],[1,0.5]];portConstraint=eastwest;rotatable=0;whiteSpace=wrap;html=1;shadow=0;swimlaneLine=1;labelBackgroundColor=none;labelBorderColor=none;" vertex="1" parent="LbvLRjbKe0_DXnUtJtes-13">
          <mxGeometry y="60" width="140" height="30" as="geometry" />
        </mxCell>
        <mxCell id="LbvLRjbKe0_DXnUtJtes-16" value="Item 3" style="text;align=left;verticalAlign=middle;spacingLeft=4;spacingRight=4;overflow=hidden;points=[[0,0.5],[1,0.5]];portConstraint=eastwest;rotatable=0;whiteSpace=wrap;html=1;shadow=0;swimlaneLine=1;labelBackgroundColor=none;labelBorderColor=none;" vertex="1" parent="LbvLRjbKe0_DXnUtJtes-13">
          <mxGeometry y="90" width="140" height="30" as="geometry" />
        </mxCell>
        <mxCell id="LbvLRjbKe0_DXnUtJtes-17" value="Pessoa" style="swimlane;fontStyle=0;childLayout=stackLayout;horizontal=1;startSize=30;horizontalStack=0;resizeParent=1;resizeParentMax=0;resizeLast=0;collapsible=1;marginBottom=0;whiteSpace=wrap;html=1;shadow=1;swimlaneLine=1;labelBackgroundColor=none;labelBorderColor=none;" vertex="1" parent="1">
          <mxGeometry x="310" y="20" width="140" height="120" as="geometry" />
        </mxCell>
        <mxCell id="LbvLRjbKe0_DXnUtJtes-18" value="Item 1" style="text;align=left;verticalAlign=middle;spacingLeft=4;spacingRight=4;overflow=hidden;points=[[0,0.5],[1,0.5]];portConstraint=eastwest;rotatable=0;whiteSpace=wrap;html=1;shadow=0;swimlaneLine=1;labelBackgroundColor=none;labelBorderColor=none;" vertex="1" parent="LbvLRjbKe0_DXnUtJtes-17">
          <mxGeometry y="30" width="140" height="30" as="geometry" />
        </mxCell>
        <mxCell id="LbvLRjbKe0_DXnUtJtes-19" value="Item 2" style="text;align=left;verticalAlign=middle;spacingLeft=4;spacingRight=4;overflow=hidden;points=[[0,0.5],[1,0.5]];portConstraint=eastwest;rotatable=0;whiteSpace=wrap;html=1;shadow=0;swimlaneLine=1;labelBackgroundColor=none;labelBorderColor=none;" vertex="1" parent="LbvLRjbKe0_DXnUtJtes-17">
          <mxGeometry y="60" width="140" height="30" as="geometry" />
        </mxCell>
        <mxCell id="LbvLRjbKe0_DXnUtJtes-20" value="Item 3" style="text;align=left;verticalAlign=middle;spacingLeft=4;spacingRight=4;overflow=hidden;points=[[0,0.5],[1,0.5]];portConstraint=eastwest;rotatable=0;whiteSpace=wrap;html=1;shadow=0;swimlaneLine=1;labelBackgroundColor=none;labelBorderColor=none;" vertex="1" parent="LbvLRjbKe0_DXnUtJtes-17">
          <mxGeometry y="90" width="140" height="30" as="geometry" />
        </mxCell>
        <mxCell id="LbvLRjbKe0_DXnUtJtes-21" value="SolicitarServico" style="swimlane;fontStyle=0;childLayout=stackLayout;horizontal=1;startSize=30;horizontalStack=0;resizeParent=1;resizeParentMax=0;resizeLast=0;collapsible=1;marginBottom=0;whiteSpace=wrap;html=1;shadow=0;swimlaneLine=1;labelBackgroundColor=none;labelBorderColor=none;" vertex="1" parent="1">
          <mxGeometry x="310" y="390" width="140" height="120" as="geometry" />
        </mxCell>
        <mxCell id="LbvLRjbKe0_DXnUtJtes-22" value="dataInicio: Data" style="text;align=left;verticalAlign=middle;spacingLeft=4;spacingRight=4;overflow=hidden;points=[[0,0.5],[1,0.5]];portConstraint=eastwest;rotatable=0;whiteSpace=wrap;html=1;shadow=0;swimlaneLine=1;labelBackgroundColor=none;labelBorderColor=none;" vertex="1" parent="LbvLRjbKe0_DXnUtJtes-21">
          <mxGeometry y="30" width="140" height="30" as="geometry" />
        </mxCell>
        <mxCell id="LbvLRjbKe0_DXnUtJtes-23" value="dataConclusao: Data" style="text;align=left;verticalAlign=middle;spacingLeft=4;spacingRight=4;overflow=hidden;points=[[0,0.5],[1,0.5]];portConstraint=eastwest;rotatable=0;whiteSpace=wrap;html=1;shadow=0;swimlaneLine=1;labelBackgroundColor=none;labelBorderColor=none;" vertex="1" parent="LbvLRjbKe0_DXnUtJtes-21">
          <mxGeometry y="60" width="140" height="30" as="geometry" />
        </mxCell>
        <mxCell id="LbvLRjbKe0_DXnUtJtes-24" value="Item 3" style="text;align=left;verticalAlign=middle;spacingLeft=4;spacingRight=4;overflow=hidden;points=[[0,0.5],[1,0.5]];portConstraint=eastwest;rotatable=0;whiteSpace=wrap;html=1;shadow=0;swimlaneLine=1;labelBackgroundColor=none;labelBorderColor=none;" vertex="1" parent="LbvLRjbKe0_DXnUtJtes-21">
          <mxGeometry y="90" width="140" height="30" as="geometry" />
        </mxCell>
        <mxCell id="LbvLRjbKe0_DXnUtJtes-45" style="edgeStyle=orthogonalEdgeStyle;rounded=0;orthogonalLoop=1;jettySize=auto;html=1;entryX=0.507;entryY=1;entryDx=0;entryDy=0;entryPerimeter=0;" edge="1" parent="1" source="LbvLRjbKe0_DXnUtJtes-25" target="LbvLRjbKe0_DXnUtJtes-20">
          <mxGeometry relative="1" as="geometry">
            <mxPoint x="380" y="150" as="targetPoint" />
            <Array as="points">
              <mxPoint x="380" y="175" />
              <mxPoint x="381" y="175" />
            </Array>
          </mxGeometry>
        </mxCell>
        <mxCell id="LbvLRjbKe0_DXnUtJtes-25" value="Atendente" style="swimlane;fontStyle=0;childLayout=stackLayout;horizontal=1;startSize=30;horizontalStack=0;resizeParent=1;resizeParentMax=0;resizeLast=0;collapsible=1;marginBottom=0;whiteSpace=wrap;html=1;shadow=0;swimlaneLine=1;labelBackgroundColor=none;labelBorderColor=none;" vertex="1" parent="1">
          <mxGeometry x="310" y="210" width="140" height="120" as="geometry" />
        </mxCell>
        <mxCell id="LbvLRjbKe0_DXnUtJtes-26" value="idAtendente: int" style="text;align=left;verticalAlign=middle;spacingLeft=4;spacingRight=4;overflow=hidden;points=[[0,0.5],[1,0.5]];portConstraint=eastwest;rotatable=0;whiteSpace=wrap;html=1;shadow=0;swimlaneLine=1;labelBackgroundColor=none;labelBorderColor=none;" vertex="1" parent="LbvLRjbKe0_DXnUtJtes-25">
          <mxGeometry y="30" width="140" height="30" as="geometry" />
        </mxCell>
        <mxCell id="LbvLRjbKe0_DXnUtJtes-27" value="regSolicitacao()" style="text;align=left;verticalAlign=middle;spacingLeft=4;spacingRight=4;overflow=hidden;points=[[0,0.5],[1,0.5]];portConstraint=eastwest;rotatable=0;whiteSpace=wrap;html=1;shadow=0;swimlaneLine=1;labelBackgroundColor=none;labelBorderColor=none;" vertex="1" parent="LbvLRjbKe0_DXnUtJtes-25">
          <mxGeometry y="60" width="140" height="30" as="geometry" />
        </mxCell>
        <mxCell id="LbvLRjbKe0_DXnUtJtes-28" value="regServico()" style="text;align=left;verticalAlign=middle;spacingLeft=4;spacingRight=4;overflow=hidden;points=[[0,0.5],[1,0.5]];portConstraint=eastwest;rotatable=0;whiteSpace=wrap;html=1;shadow=0;swimlaneLine=1;labelBackgroundColor=none;labelBorderColor=none;" vertex="1" parent="LbvLRjbKe0_DXnUtJtes-25">
          <mxGeometry y="90" width="140" height="30" as="geometry" />
        </mxCell>
        <mxCell id="LbvLRjbKe0_DXnUtJtes-41" style="edgeStyle=orthogonalEdgeStyle;rounded=0;orthogonalLoop=1;jettySize=auto;html=1;entryX=-0.007;entryY=0.3;entryDx=0;entryDy=0;entryPerimeter=0;" edge="1" parent="1" source="LbvLRjbKe0_DXnUtJtes-5" target="LbvLRjbKe0_DXnUtJtes-19">
          <mxGeometry relative="1" as="geometry" />
        </mxCell>
        <mxCell id="LbvLRjbKe0_DXnUtJtes-42" style="edgeStyle=orthogonalEdgeStyle;rounded=0;orthogonalLoop=1;jettySize=auto;html=1;entryX=1.071;entryY=0.333;entryDx=0;entryDy=0;entryPerimeter=0;" edge="1" parent="1" source="LbvLRjbKe0_DXnUtJtes-1" target="LbvLRjbKe0_DXnUtJtes-19">
          <mxGeometry relative="1" as="geometry" />
        </mxCell>
      </root>
    </mxGraphModel>
  </diagram>
</mxfile>
